
        <svg xmlns="http://www.w3.org/2000/svg" xmlns:xlink="http://www.w3.org/1999/xlink" version="1.1" width="3189.274447949527" height="1305.993690851735" viewBox="0 0 3189.274447949527 1305.993690851735">
			
			<g transform="scale(9.46372239747634) translate(10, 10)">
				<defs id="SvgjsDefs2914"><linearGradient id="SvgjsLinearGradient2923"><stop id="SvgjsStop2924" stop-color="#8f5e25" offset="0"/><stop id="SvgjsStop2925" stop-color="#fbf4a1" offset="0.5"/><stop id="SvgjsStop2926" stop-color="#8f5e25" offset="1"/></linearGradient><linearGradient id="SvgjsLinearGradient2927"><stop id="SvgjsStop2928" stop-color="#8f5e25" offset="0"/><stop id="SvgjsStop2929" stop-color="#fbf4a1" offset="0.5"/><stop id="SvgjsStop2930" stop-color="#8f5e25" offset="1"/></linearGradient><linearGradient id="SvgjsLinearGradient2931"><stop id="SvgjsStop2932" stop-color="#8f5e25" offset="0"/><stop id="SvgjsStop2933" stop-color="#fbf4a1" offset="0.5"/><stop id="SvgjsStop2934" stop-color="#8f5e25" offset="1"/></linearGradient><linearGradient id="SvgjsLinearGradient2935"><stop id="SvgjsStop2936" stop-color="#8f5e25" offset="0"/><stop id="SvgjsStop2937" stop-color="#fbf4a1" offset="0.5"/><stop id="SvgjsStop2938" stop-color="#8f5e25" offset="1"/></linearGradient></defs><g id="SvgjsG2915" featureKey="symbolFeature-0" transform="matrix(0.07197726987339326,0,0,0.07197726987339326,-5.323628268270262,23.0155327840195)" fill="#fff"><g xmlns="http://www.w3.org/2000/svg"><path d="M643.2,954c-14.7-20.9-36.8-27.2-59.3-32.5c-21.2-5-42.8-7.6-64.5-8.3c-34.1-1.1-67.9-4.1-101.3-11.2   c-68.2-14.5-132-39-187.9-81.8c-49-37.6-84.5-85.1-103.6-144.2c-5.6-17.2-9.3-34.9-11.7-52.9c-3.4-26-3.5-52-1.3-78.1   c3.2-38.3,11.3-75.4,26.4-110.8c12.5-29.4,29.1-56.3,50.2-80.4c22.9-26,49.5-47.4,80.6-62.9c9-4.5,18.7-7.8,28.1-11.6   c0.7-0.3,1.6-0.3,2.4-0.5c0.2,0.3,0.4,0.6,0.7,0.9c-0.7,0.4-1.5,0.8-2.2,1.3c-36.4,26.1-65.5,58.8-87.9,97.5   c-18.4,31.7-30.3,65.9-37,101.9c-6.6,35.6-7.3,71.3-4.7,107.3c2.6,34.8,10.7,68.1,26.5,99.3c17.3,34.3,42,62.6,72,86.3   c45.8,36.1,98,59.7,153.5,76.1c23.4,6.9,47.2,12.5,71.2,17c26.2,5,51.9,11.2,76.6,21.2c21,8.6,41.1,19,57.2,35.5   c7.9,8,13.7,17.3,16,28.4C643.1,952.2,643.1,952.8,643.2,954z"/><path d="M715.7,1000.1c-1.4-5.6-2.6-11-4-16.3c-13.6-50.7-43.8-88.1-90.3-112.3c-26.9-14-55.5-22.7-85.1-28.3   c-29.7-5.6-59.6-10.1-88.9-17.9c-41.9-11.1-81.9-26.5-118-51.1c-33.3-22.7-58.5-52.7-78.6-87.3c-13.1-22.6-23-46.4-29.5-71.7   c-5.6-22.1-8.8-44.6-8.5-67.4c0.4-36.4,7.4-71.4,21.3-105.2c14.3-35,33.6-66.9,59.3-94.8c6.3-6.8,13.2-13.1,19.9-19.6   c0.6-0.6,1.4-1,2.7-1.1c-0.7,1.5-1.4,3-2.2,4.4c-18.6,37.2-33.2,75.8-42.4,116.4c-7.2,31.9-10.4,64.2-7.8,96.9   c3.5,44,17.3,84.6,40.1,122.2c9.9,16.4,20.8,32,34.8,45.3c20.8,19.7,44.7,34.5,70.7,46.2c36.2,16.3,74.5,26.2,113,35.2   c37.4,8.7,73.3,21.6,106,42.3c31.5,20,56.9,45.6,72.9,79.7c8.2,17.6,13.3,36.1,14.4,55.5C716.1,980.7,715.7,990.2,715.7,1000.1z"/><path d="M486,158.8c34.9-2.4,69.4-2.4,103.4,6.8c16.6,4.5,16.4,4.7,24.8,19.8c6.9,12.5,14.2,24.7,21.4,37c0.6,1,1.4,2.1,2.4,2.7   c29.9,19.7,60.2,38.9,89.8,59c35.4,24,70.7,48.2,105.4,73.2c30.6,22,60.2,45.3,90.3,68c0.7,0.5,1.3,1.1,2.4,2.1   c-1.7,2.2-3.5,4.3-5.1,6.6c-9.4,13.2-13.6,27.4-6.8,43c2,4.7,5.3,8.9,8.2,13.7c-0.6,0.6-1.5,1.6-2.4,2.6   c-20.1,20-40.2,40-60.2,60.1c-2.8,2.9-5.7,3.9-9.5,3.7c-25.1-0.8-47.6-8.8-66.8-24.9c-7.7-6.5-14.2-14.6-21.3-21.9   c-1-1-2.5-2.1-3.8-2.3c-16.2-2.3-32.4-4.5-48.6-6.7c-17.2-2.3-34.4-4.7-51.6-7c-15.8-2.1-31.7-4.2-47.5-6.4   c-11.8-1.6-23.6-3.1-35.3-4.9c-3.8-0.6-6.3,0.1-9.2,2.9c-21.1,20.8-45,37.5-73.7,46.3c-23.8,7.3-47.3,6.6-70-4.2   c-17.6-8.3-29.7-22.1-38-39.4c-7.1-14.8-10.9-30.5-12.8-46.8c-1.9-15.7-2.2-31.4-1.3-47.2c0.3-5.8,1-11.7,2.1-17.5   c0.8,7.6,1.3,15.2,2.4,22.7c3.6,25.6,9.7,50.5,23.5,72.8c12.1,19.6,28.9,32.8,52.2,36.6c20,3.3,38.8-0.7,56.8-9.1   c22.4-10.4,41.2-25.7,57.8-43.8c1-1.1,3.3-2.1,4.7-1.8c26.1,4.5,52.2,9.2,78.3,13.7c26.5,4.6,52.9,9.2,79.4,13.8   c12.9,2.2,25.9,4.5,38.7,6.9c1.9,0.4,3.9,1.6,5.3,3c12.3,13.1,25.5,25.1,40.8,34.6c9,5.6,18.6,9.9,29.3,11.1   c5.8,0.7,10.6-0.2,14.9-5c12.8-14.2,26.2-27.9,39.4-41.7c1.6-1.6,1.2-2.8,0.4-4.5c-4-8.9-7-18-7-27.9c0-12.2,5.2-21.2,16.4-26.5   c0.4-0.2,0.9-0.5,1.3-0.7c0.1-0.1,0.2-0.2,0.4-0.5c-11-7.4-22.1-14.7-33.1-22.1c-51.6-34.3-103.1-68.8-154.9-102.8   c-17.5-11.5-36-21.4-54-32c-14.7-8.7-29.5-17.3-44.2-26c-1.2-0.7-2.1-2-2.7-3.3c-6-13.6-12-27.2-17.7-40.9   c-1.4-3.5-3.5-5.2-6.8-6.4c-28.2-10-56.4-20-84.6-30C501.5,164.4,493.8,161.6,486,158.8z"/><path d="M742.4,912.2c-4.4-9.2-8.5-18.7-13.4-27.6c-9.7-17.7-23.3-32.1-38.7-44.9c-31.1-25.8-66.5-44.4-102.8-61.6   c-41.6-19.8-84.4-37-127.2-54.1c-20.9-8.3-41.6-16.8-60.5-29.2c-36.1-23.5-62.7-54.8-78.1-95.1c-11.3-29.5-15.5-60.2-13.9-91.7   c2-38.8,10.9-75.9,27.2-111.2c0.4-0.9,0.9-1.8,1.4-2.6c0.1-0.2,0.3-0.3,0.8-0.9c-0.8,6.3-1.7,12.2-2.4,18.1   c-3.2,28.2-4.1,56.5-1.6,84.8c2.1,23.4,6.7,46.2,14.9,68.1c17.9,47.3,50.9,80.3,96.9,100.1c21.6,9.3,43.9,16.9,65.7,25.7   c46,18.6,90.4,40.1,131.3,68.4c26.9,18.6,51.6,39.6,71.2,66.1c12.6,16.9,22.1,35.4,26.5,56.1c2.2,10.3,2.4,21.1,3.5,31.7   C743,912.3,742.7,912.2,742.4,912.2z"/><path d="M752.1,852.1c-3.8-9.7-7.1-18.7-10.9-27.4c-7.4-16.8-17.3-32-28.8-46.3c-19.5-24.1-42.7-44.2-68-62.1   c-35.7-25.3-74.2-45.8-114.1-63.7c-21.1-9.5-42.7-18.1-63.2-28.7c-38-19.6-67.1-48.6-86.1-87.2c-0.7-1.5-1.4-3.1-1.8-4.7   c9.9,11.2,20.8,21,33.1,29.4c18.7,12.8,39.2,21.5,60.6,28.7c28.8,9.7,57.7,19.3,86.1,30.4c33.4,13,64.5,30.7,93,52.7   c17.1,13.2,32.9,27.9,47.1,44.4c13.6,15.8,25.3,32.7,34.6,51.3c10.4,20.6,16.5,42.4,18.2,65.4C752.5,839.9,752.1,845.6,752.1,852.1   z"/><path d="M317,213.2c-2.4,1.1-4.9,2.2-7.3,3.4c-40.3,19.5-77.3,44-110.9,73.7c-27.2,24.1-51.1,51.1-71,81.6   c-26.2,40.3-43,84.3-50,131.9c-0.7,4.8-1.2,9.6-2.2,14.4C75,512.8,74,507.4,74,502c0-15.3-0.3-30.6,0.8-45.8   c1.3-17.7,4.6-35.1,9.6-52.2c7.2-24.7,16.8-48.3,30.2-70.4c21.6-35.3,49.3-64.7,84.4-86.7c27.8-17.4,57.8-29.1,90.4-33.3   c9-1.2,18.2-1,27.3-1.4C316.9,212.5,316.9,212.9,317,213.2z"/><path d="M401.6,180.2c-14.3-10.4-22.8-23.6-27-39.6c-5.2-19.8-2.9-39.3,3.7-58.3c10.1-29.1,25.1-55.3,46.8-77.5   c6.9-7,11.9-6.8,17.7,1.4c16,22.8,28.5,47.2,32.2,75.2c3.4,25.6-1.5,50-11.4,73.7c-0.3-5.2-0.6-10.5-0.9-15.7   c-2.6-35.2-10.5-69.1-23.8-101.7c-0.4-1-0.9-2-1.5-3c-2.8-4.9-6.7-5.8-11-2.1c-2.8,2.4-5.2,5.4-7.4,8.3   c-11.6,15.5-17.6,33.3-20.4,52.2c-4.2,27.9-2.7,55.7,2.7,83.4C401.4,177.5,401.4,178.5,401.6,180.2z"/><path d="M141.7,245.8c43.9-78,148.8-96.1,204-67.2C271,180.2,204.8,207,141.7,245.8z"/></g></g><g id="SvgjsG2916" featureKey="textGroupContainer" transform="matrix(1,0,0,1,316,0)" fill="#fff"><rect xmlns="http://www.w3.org/2000/svg" y="0" height="1" width="1" opacity="0"/><rect xmlns="http://www.w3.org/2000/svg" y="0" x="-235" width="3" height="118"/></g><g id="SvgjsG2917" featureKey="nameFeature-0" transform="matrix(1.2631461274035982,0,0,1.2631461274035982,96.17055236141213,13.275947971547602)" fill="#fff"><path d="M12.76 23.8 c3.04 1.44 7 3.72 7 7.84 c0 1.2 -0.2 3.52 -1.52 5.48 c-1.48 2.2 -3.8 3.28 -7 3.28 c-3.4 0 -7.36 -1.64 -8.6 -5.36 c-0.04 -0.12 0 -0.24 0.12 -0.32 l3.68 -3.16 c0.16 -0.12 0.4 -0.12 0.52 0.08 c0.08 0.2 0.24 0.52 0.44 0.92 c0.6 1.24 2.04 2.48 3.64 2.48 c1.24 0 2.92 -0.68 2.92 -2.6 c0 -1.84 -2.52 -2.88 -4.08 -3.48 c-1.8 -0.72 -3.64 -1.64 -5.2 -3 c-1.64 -1.52 -2.44 -3.2 -2.44 -5.2 c0 -5 4.6 -7.52 8.96 -7.52 c3.44 0 6 1.8 7.68 5.36 c0.08 0.16 0 0.36 -0.12 0.44 l-3.56 2.48 c-0.16 0.08 -0.24 0.08 -0.4 -0.12 c-1.36 -1.96 -2.56 -2.88 -4.16 -2.88 c-0.84 0 -2.8 0.32 -2.8 1.8 c0 1.8 3.32 2.72 4.92 3.48 z M5.48 34.84 c1 2 3.76 3.16 6 3.16 c2.92 0 5.28 -2 5.6 -5.04 c0.4 -3.72 -2.52 -5.32 -5.4 -6.76 l-1.28 -0.56 c-2.96 -1.32 -5.12 -2.32 -5.12 -5.08 c0 -3.04 2.8 -4.44 5.56 -4.44 c2.52 0 3.84 1.48 4.52 2.4 c0.24 0.32 0.64 0.04 0.4 -0.28 c-0.68 -0.84 -2.12 -2.6 -4.92 -2.6 c-3.16 0 -6.04 1.56 -6.04 4.92 c0 3 2.4 4.16 5.44 5.56 l1.24 0.6 c3.96 1.88 5.4 3.64 5.08 6.2 c-0.6 4.08 -3.72 4.6 -5.08 4.6 c-3 0 -5 -1.8 -5.6 -2.92 c-0.2 -0.2 -0.48 0 -0.4 0.24 z M31.509 13.84 c0.04 -0.12 0.12 -0.24 0.28 -0.24 l4.96 0 c0.16 0 0.24 0.12 0.28 0.24 l6.92 25.72 c0.04 0.24 -0.12 0.44 -0.36 0.44 l-4.56 0 c-0.12 0 -0.24 -0.08 -0.28 -0.24 l-1.56 -5.6 l-5.84 0 l-1.52 5.6 c-0.04 0.16 -0.12 0.24 -0.28 0.24 l-4.6 0 c-0.24 0 -0.4 -0.2 -0.36 -0.44 z M32.629 29.2 l3.32 0 l-1.72 -6.04 z M38.789 31.560000000000002 l1.84 6 c0.08 0.24 0.52 0.2 0.4 -0.12 l-6.4 -21.28 c-0.12 -0.52 -0.8 -0.56 -0.92 0 l-6.2 21.28 c-0.12 0.28 0.32 0.4 0.44 0.16 l1.76 -6.04 l9.08 0 z M29.829 31.04 l4.36 -14.72 l4.44 14.72 l-8.8 0 z M60.617999999999995 13.600000000000001 c2.72 0 4.76 0.76 6.12 2.24 c1.2 1.32 1.8 3.28 1.8 5.68 l0 10.6 c0 4.84 -2.8 7.88 -7.92 7.88 l-10 0 c-0.2 0 -0.32 -0.16 -0.32 -0.36 l0 -25.68 c0 -0.2 0.12 -0.36 0.32 -0.36 l10 0 z M63.298 30.92 l0 -8.2 c0 -2.52 -1.32 -4.12 -4.12 -4.12 l-3.6 0 l0 16.4 l3.6 0 c2.4 0 4.12 -1.56 4.12 -4.08 z M52.738 16.04 l0 21.52 c0 0.16 0.16 0.2 0.24 0.2 l6.52 0 c4.6 0 6.68 -2.76 6.68 -5.32 l0 -10.24 c0 -4.24 -2.24 -6.4 -6.8 -6.4 l-6.4 0 c-0.08 0 -0.24 0.04 -0.24 0.24 z M65.698 22.2 l0 10.24 c0 3.2 -3.2 4.88 -6.2 4.88 l-6.28 0 l0 -21 l6.16 0 c4.2 0 6.32 1.88 6.32 5.88 z M86.607 13.600000000000001 c2.72 0 4.76 0.76 6.12 2.24 c1.2 1.32 1.8 3.28 1.8 5.68 l0 10.6 c0 4.84 -2.8 7.88 -7.92 7.88 l-10 0 c-0.2 0 -0.32 -0.16 -0.32 -0.36 l0 -25.68 c0 -0.2 0.12 -0.36 0.32 -0.36 l10 0 z M89.287 30.92 l0 -8.2 c0 -2.52 -1.32 -4.12 -4.12 -4.12 l-3.6 0 l0 16.4 l3.6 0 c2.4 0 4.12 -1.56 4.12 -4.08 z M78.727 16.04 l0 21.52 c0 0.16 0.16 0.2 0.24 0.2 l6.52 0 c4.6 0 6.68 -2.76 6.68 -5.32 l0 -10.24 c0 -4.24 -2.24 -6.4 -6.8 -6.4 l-6.4 0 c-0.08 0 -0.24 0.04 -0.24 0.24 z M91.687 22.2 l0 10.24 c0 3.2 -3.2 4.88 -6.2 4.88 l-6.28 0 l0 -21 l6.16 0 c4.2 0 6.32 1.88 6.32 5.88 z M107.156 13.600000000000001 c0.2 0 0.36 0.16 0.36 0.36 l0 21 l8.64 0 c0.2 0 0.36 0.16 0.36 0.36 l0 4.32 c0 0.2 -0.16 0.36 -0.36 0.36 l-13.56 0 c-0.2 0 -0.32 -0.16 -0.32 -0.36 l0 -25.68 c0 -0.2 0.12 -0.36 0.32 -0.36 l4.56 0 z M104.676 16.04 l0 21.52 c0 0.08 0.08 0.2 0.24 0.2 l9.24 0 c0.32 0 0.32 -0.52 0 -0.52 l-9.04 0 l0 -21.2 c0 -0.28 -0.44 -0.32 -0.44 0 z M123.185 40 c-0.2 0 -0.32 -0.16 -0.32 -0.36 l0 -25.68 c0 -0.2 0.12 -0.36 0.32 -0.36 l13.6 0 c0.2 0 0.36 0.16 0.36 0.36 l0 4.28 c0 0.2 -0.16 0.36 -0.36 0.36 l-8.64 0 l0 5.44 l6.72 0 c0.2 0 0.32 0.16 0.32 0.36 l0 4.36 c0 0.2 -0.12 0.36 -0.32 0.36 l-6.72 0 l0 5.88 l8.64 0 c0.2 0 0.36 0.16 0.36 0.36 l0 4.28 c0 0.2 -0.16 0.36 -0.36 0.36 l-13.6 0 z M125.185 16.12 l0 21.28 c0 0.24 0.16 0.32 0.32 0.32 l9.2 0 c0.36 0 0.28 -0.48 0 -0.48 l-9 0 l0 -10.44 l7.36 0 c0.24 0 0.24 -0.56 0 -0.56 l-7.36 0 l0 -9.92 l9 0 c0.28 0 0.36 -0.52 0 -0.52 l-9.2 0 c-0.16 0 -0.32 0.12 -0.32 0.32 z M159.654 29.560000000000002 c-0.56 1.16 -1.36 2.04 -2.48 2.56 l3.36 7.4 c0.12 0.24 -0.04 0.48 -0.28 0.48 l-4.92 0 c-0.16 0 -0.24 -0.08 -0.28 -0.2 l-3.12 -6.8 l-2.04 0 l0 6.64 c0 0.2 -0.16 0.36 -0.36 0.36 l-4.6 0 c-0.16 0 -0.28 -0.16 -0.28 -0.36 l0 -25.68 c0 -0.2 0.12 -0.36 0.28 -0.36 l8.32 0 c4.44 0 7.12 2.52 7.12 7.2 l0 5.04 c0 1.4 -0.24 2.72 -0.72 3.72 z M155.13400000000001 24.6 l0 -2.6 c0 -2.8 -1.04 -3.08 -4.08 -3.08 l-1.16 0 l0 8.84 l1.16 0 c2.52 0 4 -0.04 4.08 -3.16 z M147.574 37.56 l0 -6.84 l5.76 0 l3.36 6.92 c0.08 0.2 0.56 0.12 0.44 -0.24 l-3.36 -6.8 c3.12 -0.44 4.2 -2.08 4.2 -5.04 l0 -5 c0 -4.4 -4 -4.76 -5.24 -4.76 l-5.4 0 c-0.08 0 -0.24 0.12 -0.24 0.24 l0 21.52 c0 0.28 0.48 0.28 0.48 0 z M157.494 20.56 l0 5 c0 4.08 -2.6 4.64 -5.12 4.64 l-4.8 0 l0 -13.88 l5.16 0 c4.32 0 4.76 2.92 4.76 4.24 z"/></g><g id="SvgjsG2918" featureKey="sloganFeature-0" transform="matrix(1.105277742964023,0,0,1.105277742964023,98.33683398666659,67.36833512332836)" fill="#fff"><path d="M0.6 20 l0 -2.24 l0.42 -0.28 l0 -8.96 l-0.42 -0.28 l0 -2.24 l3.36 0 l0 2.24 l-0.42 0.28 l0 3.22 l3.08 0 l0 -3.22 l-0.42 -0.28 l0 -2.24 l3.36 0 l0 2.24 l-0.42 0.28 l0 8.96 l0.42 0.28 l0 2.24 l-3.36 0 l0 -2.24 l0.42 -0.28 l0 -3.22 l-3.08 0 l0 3.22 l0.42 0.28 l0 2.24 l-3.36 0 z M12.620000000000001 20 l-1.86 -1.86 l0 -10.28 l1.86 -1.86 l4.54 0 l1.86 1.86 l0 10.28 l-1.86 1.86 l-4.54 0 z M13.66 17.48 l2.46 0 l0.38 -0.38 l0 -8.2 l-0.38 -0.38 l-2.46 0 l-0.38 0.38 l0 8.2 z M20.220000000000002 20 l0 -2.24 l0.42 -0.28 l0 -8.96 l-0.42 -0.28 l0 -2.24 l6.4 0 l1.86 1.86 l0 5.1 l-1.08 1.1 l0.86 3.34 l0.5 0.36 l0 2.24 l-3.44 0 l0 -2.24 l0.36 -0.24 l-0.7 -2.7 l-1.82 0 l0 2.66 l0.42 0.28 l0 2.24 l-3.36 0 z M23.16 12.3 l2.42 0 l0.38 -0.38 l0 -3.02 l-0.38 -0.38 l-2.42 0 l0 3.78 z M31.64 20 l-1.86 -1.86 l0 -2.62 l2.52 0 l0 1.58 l0.38 0.38 l2.04 0 l0.38 -0.38 l0 -2.46 l-0.38 -0.38 l-3.08 0 l-1.86 -1.86 l0 -4.54 l1.86 -1.86 l4.12 0 l1.86 1.86 l0 2.62 l-2.52 0 l0 -1.58 l-0.38 -0.38 l-2.04 0 l-0.38 0.38 l0 2.46 l0.38 0.38 l3.08 0 l1.86 1.86 l0 4.54 l-1.86 1.86 l-4.12 0 z M38.82 20 l0 -2.24 l0.42 -0.28 l0 -8.96 l-0.42 -0.28 l0 -2.24 l7.28 0 l0 2.94 l-2.24 0 l-0.28 -0.42 l-1.82 0 l0 3.22 l3.22 0 l0 2.52 l-3.22 0 l0 3.22 l1.82 0 l0.28 -0.42 l2.24 0 l0 2.94 l-7.28 0 z M50.50000000000001 20 l0 -2.24 l0.42 -0.28 l1.82 -8.96 l-0.42 -0.28 l0 -2.24 l5.32 0 l0 2.24 l-0.42 0.28 l1.82 8.96 l0.42 0.28 l0 2.24 l-2.48 0 l-0.62 -3.08 l-2.76 0 l-0.62 3.08 l-2.48 0 z M54.120000000000005 14.4 l1.72 0 l-0.86 -4.28 z M62.120000000000005 20 l-1.86 -1.86 l0 -10.28 l1.86 -1.86 l4.4 0 l1.86 1.86 l0 2.62 l-2.52 0 l0 -1.58 l-0.38 -0.38 l-2.32 0 l-0.38 0.38 l0 8.2 l0.38 0.38 l2.32 0 l0.38 -0.38 l0 -1.58 l2.52 0 l0 2.62 l-1.86 1.86 l-4.4 0 z M71.44 20 l-1.86 -1.86 l0 -10.28 l1.86 -1.86 l4.4 0 l1.86 1.86 l0 2.62 l-2.52 0 l0 -1.58 l-0.38 -0.38 l-2.32 0 l-0.38 0.38 l0 8.2 l0.38 0.38 l2.32 0 l0.38 -0.38 l0 -1.58 l2.52 0 l0 2.62 l-1.86 1.86 l-4.4 0 z M78.9 20 l0 -2.24 l0.42 -0.28 l0 -8.96 l-0.42 -0.28 l0 -2.24 l7.28 0 l0 2.94 l-2.24 0 l-0.28 -0.42 l-1.82 0 l0 3.22 l3.22 0 l0 2.52 l-3.22 0 l0 3.22 l1.82 0 l0.28 -0.42 l2.24 0 l0 2.94 l-7.28 0 z M89.24000000000001 20 l-1.86 -1.86 l0 -2.62 l2.52 0 l0 1.58 l0.38 0.38 l2.04 0 l0.38 -0.38 l0 -2.46 l-0.38 -0.38 l-3.08 0 l-1.86 -1.86 l0 -4.54 l1.86 -1.86 l4.12 0 l1.86 1.86 l0 2.62 l-2.52 0 l0 -1.58 l-0.38 -0.38 l-2.04 0 l-0.38 0.38 l0 2.46 l0.38 0.38 l3.08 0 l1.86 1.86 l0 4.54 l-1.86 1.86 l-4.12 0 z M98.28000000000002 20 l-1.86 -1.86 l0 -2.62 l2.52 0 l0 1.58 l0.38 0.38 l2.04 0 l0.38 -0.38 l0 -2.46 l-0.38 -0.38 l-3.08 0 l-1.86 -1.86 l0 -4.54 l1.86 -1.86 l4.12 0 l1.86 1.86 l0 2.62 l-2.52 0 l0 -1.58 l-0.38 -0.38 l-2.04 0 l-0.38 0.38 l0 2.46 l0.38 0.38 l3.08 0 l1.86 1.86 l0 4.54 l-1.86 1.86 l-4.12 0 z M107.32000000000002 20 l-1.86 -1.86 l0 -10.28 l1.86 -1.86 l4.54 0 l1.86 1.86 l0 10.28 l-1.86 1.86 l-4.54 0 z M108.36000000000003 17.48 l2.46 0 l0.38 -0.38 l0 -8.2 l-0.38 -0.38 l-2.46 0 l-0.38 0.38 l0 8.2 z M114.92000000000002 20 l0 -2.24 l0.42 -0.28 l0 -8.96 l-0.42 -0.28 l0 -2.24 l6.4 0 l1.86 1.86 l0 5.1 l-1.08 1.1 l0.86 3.34 l0.5 0.36 l0 2.24 l-3.44 0 l0 -2.24 l0.36 -0.24 l-0.7 -2.7 l-1.82 0 l0 2.66 l0.42 0.28 l0 2.24 l-3.36 0 z M117.86000000000003 12.3 l2.42 0 l0.38 -0.38 l0 -3.02 l-0.38 -0.38 l-2.42 0 l0 3.78 z M124.48000000000002 20 l0 -2.24 l0.42 -0.28 l0 -8.96 l-0.42 -0.28 l0 -2.24 l3.36 0 l0 2.24 l-0.42 0.28 l0 8.96 l0.42 0.28 l0 2.24 l-3.36 0 z M129.04000000000002 20 l0 -2.24 l0.42 -0.28 l0 -8.96 l-0.42 -0.28 l0 -2.24 l7.28 0 l0 2.94 l-2.24 0 l-0.28 -0.42 l-1.82 0 l0 3.22 l3.22 0 l0 2.52 l-3.22 0 l0 3.22 l1.82 0 l0.28 -0.42 l2.24 0 l0 2.94 l-7.28 0 z M139.38000000000002 20 l-1.86 -1.86 l0 -2.62 l2.52 0 l0 1.58 l0.38 0.38 l2.04 0 l0.38 -0.38 l0 -2.46 l-0.38 -0.38 l-3.08 0 l-1.86 -1.86 l0 -4.54 l1.86 -1.86 l4.12 0 l1.86 1.86 l0 2.62 l-2.52 0 l0 -1.58 l-0.38 -0.38 l-2.04 0 l-0.38 0.38 l0 2.46 l0.38 0.38 l3.08 0 l1.86 1.86 l0 4.54 l-1.86 1.86 l-4.12 0 z"/></g>
			</g>
		</svg>
	